<svg xmlns="http://www.w3.org/2000/svg" width="100%" viewBox="0 0 900 230" font-family="Inter, 'Segoe UI', system-ui, sans-serif" role="img" aria-label="Figure C01 inline">
<rect x="0" y="0" width="900" height="230" fill="#070b14"/>
<text x="40" y="30" fill="#4dd7ff" font-size="11" font-weight="700" letter-spacing="2.2">C01 · BLOCK C · GEOMETRIC &amp; TOPOLOGICAL DL</text>
<text x="40" y="56" fill="#8a99ad" font-size="11">path A-B-C + h_B'</text>
<rect x="40" y="143" width="22" height="7" rx="2" fill="#4dd7ff"/>
<text x="51" y="164" fill="#8a99ad" font-size="9" text-anchor="middle">A</text>
<rect x="68" y="136" width="22" height="14" rx="2" fill="#4dd7ff"/>
<text x="79" y="164" fill="#8a99ad" font-size="9" text-anchor="middle">B</text>
<rect x="96" y="80" width="22" height="70" rx="2" fill="#4dd7ff"/>
<text x="107" y="164" fill="#8a99ad" font-size="9" text-anchor="middle">C</text>
<rect x="124" y="119.69" width="22" height="30.31" rx="2" fill="#fbbf24"/>
<text x="135" y="164" fill="#8a99ad" font-size="9" text-anchor="middle">h'</text>
<line x1="40" y1="119.69" x2="152" y2="119.69" stroke="#fb7185" stroke-width="1" stroke-dasharray="3 3"/>
<text x="270" y="124" fill="#8a99ad" font-size="26" text-anchor="middle">→</text>
<rect x="310" y="78" width="70" height="40" rx="6" fill="#0c1322" stroke="rgba(150,170,200,.18)"/>
<text x="345" y="93" fill="#8a99ad" font-size="9" text-anchor="middle">h_B' r=1</text>
<text x="345" y="110" fill="#fde68a" font-size="13" font-weight="700" text-anchor="middle">4.33</text>
<rect x="388" y="78" width="70" height="40" rx="6" fill="#0c1322" stroke="rgba(150,170,200,.18)"/>
<text x="423" y="93" fill="#8a99ad" font-size="9" text-anchor="middle">h_B' r=2</text>
<text x="423" y="110" fill="#fda4b0" font-size="13" font-weight="700" text-anchor="middle">4.80</text>
<line x1="470" y1="60" x2="470" y2="178" stroke="rgba(150,170,200,.2)" stroke-width="1"/>
<text x="500" y="86" fill="#4dd7ff" font-size="11.5" font-weight="700">domain</text>
<text x="620" y="86" fill="#9fb4cc" font-size="11.5">typed GRN</text>
<text x="500" y="110" fill="#34d399" font-size="11.5" font-weight="700">symmetry</text>
<text x="620" y="110" fill="#9fb4cc" font-size="11.5">keep direction</text>
<text x="500" y="134" fill="#fbbf24" font-size="11.5" font-weight="700">locality</text>
<text x="620" y="134" fill="#9fb4cc" font-size="11.5">evidence &gt; hops</text>
<text x="500" y="158" fill="#a78bfa" font-size="11.5" font-weight="700">claim</text>
<text x="620" y="158" fill="#9fb4cc" font-size="11.5">honest if kept</text>
<text x="450" y="210" fill="#c7d2dd" font-size="12" text-anchor="middle">Choose domain, symmetry, locality and claim before the architecture — the model is honest only if it kept t…</text>
</svg>