<svg xmlns="http://www.w3.org/2000/svg" width="100%" viewBox="0 0 940 664" font-family="Inter, 'Segoe UI', system-ui, sans-serif" role="img" aria-labelledby="t d">
<title id="t">Figure C04 — A gauge is a local ruler — transport before you compare</title>
<desc id="d">Four-panel captioned figure: A gauge is a local ruler — transport before you compare</desc>
<rect x="0" y="0" width="940" height="664" fill="#070b14"/>
<circle cx="160" cy="70" r="230" fill="#4dd7ff" opacity="0.05"/>
<circle cx="800" cy="450" r="250" fill="#a78bfa" opacity="0.05"/>
<text x="40" y="34" fill="#4dd7ff" font-size="12" font-weight="700" letter-spacing="2.5">FIGURE C04 · BLOCK C · GEOMETRIC &amp; TOPOLOGICAL DL</text>
<text x="40" y="62" fill="#e8eef6" font-size="23" font-weight="700">A gauge is a local ruler — transport before you compare</text>
<rect x="40" y="82" width="430" height="150" rx="12" fill="#0c1322" stroke="rgba(150,170,200,.18)"/>
<rect x="40" y="82" width="430" height="4" rx="2" fill="#4dd7ff"/>
<circle cx="64" cy="108" r="13" fill="#0e2740" stroke="#4dd7ff" stroke-width="1"/>
<text x="64" y="113" fill="#9fe0ff" font-size="14" font-weight="700" text-anchor="middle">a</text>
<text x="86" y="106" fill="#cfe0f0" font-size="14" font-weight="700">Two local frames</text>
<text x="56" y="139.5" fill="#4dd7ff" font-size="11.5" font-weight="700">x_A (A frame)</text>
<text x="196" y="139.5" fill="#9fb4cc" font-size="11.5">[1, 0]</text>
<text x="56" y="159.5" fill="#4dd7ff" font-size="11.5" font-weight="700">x_B (B frame)</text>
<text x="196" y="159.5" fill="#9fb4cc" font-size="11.5">[0, 1]</text>
<text x="56" y="179.5" fill="#4dd7ff" font-size="11.5" font-weight="700">B vs A gauge</text>
<text x="196" y="179.5" fill="#9fb4cc" font-size="11.5">90°</text>
<text x="56" y="199.5" fill="#4dd7ff" font-size="11.5" font-weight="700">transport map</text>
<text x="196" y="199.5" fill="#9fb4cc" font-size="11.5">R_BA</text>
<rect x="486" y="82" width="414" height="150" rx="12" fill="#0c1322" stroke="rgba(150,170,200,.18)"/>
<rect x="486" y="82" width="414" height="4" rx="2" fill="#fb7185"/>
<circle cx="510" cy="108" r="13" fill="#3a1420" stroke="#fb7185" stroke-width="1"/>
<text x="510" y="113" fill="#fda4b0" font-size="14" font-weight="700" text-anchor="middle">b</text>
<text x="532" y="106" fill="#cfe0f0" font-size="14" font-weight="700">Raw vs transported</text>
<text x="502" y="139.5" fill="#cfe0f0" font-size="11.5" font-family="Cascadia Code, 'Cascadia Mono', Consolas, monospace">R_BA = [[0,-1],[1,0]]</text>
<text x="502" y="159.5" fill="#cfe0f0" font-size="11.5" font-family="Cascadia Code, 'Cascadia Mono', Consolas, monospace">R_BA·x_A = [0,1] = x_B</text>
<text x="502" y="187.5" fill="#fb7185" font-size="11.5" font-weight="700">raw energy</text>
<text x="642" y="187.5" fill="#9fb4cc" font-size="11.5">2</text>
<text x="502" y="207.5" fill="#34d399" font-size="11.5" font-weight="700">transport energy</text>
<text x="642" y="207.5" fill="#9fb4cc" font-size="11.5">0</text>
<rect x="40" y="244" width="430" height="248" rx="12" fill="#0a1120" stroke="rgba(150,170,200,.18)"/>
<rect x="40" y="244" width="430" height="4" rx="2" fill="#fbbf24"/>
<circle cx="64" cy="270" r="13" fill="#33270a" stroke="#fbbf24" stroke-width="1"/>
<text x="64" y="275" fill="#fde68a" font-size="14" font-weight="700" text-anchor="middle">c</text>
<text x="86" y="268" fill="#cfe0f0" font-size="14" font-weight="700">Gauge consistency</text>
<text x="56" y="301.5" fill="#cfe0f0" font-size="11.5" font-family="Cascadia Code, 'Cascadia Mono', Consolas, monospace">x_i' = ρ(g_i)·x_i</text>
<text x="56" y="321.5" fill="#cfe0f0" font-size="11.5" font-family="Cascadia Code, 'Cascadia Mono', Consolas, monospace">R_ij' = ρ(g_j)·R_ij·ρ(g_i)⁻¹</text>
<text x="56" y="349" fill="#9fb4cc" font-size="11">Node features transform node by node; edge maps transform</text>
<text x="56" y="369" fill="#9fb4cc" font-size="11">on both ends. An invariant readout returns y' = y.</text>
<rect x="486" y="244" width="414" height="248" rx="12" fill="#0a1120" stroke="rgba(150,170,200,.18)"/>
<rect x="486" y="244" width="414" height="4" rx="2" fill="#a78bfa"/>
<circle cx="510" cy="270" r="13" fill="#241a40" stroke="#a78bfa" stroke-width="1"/>
<text x="510" y="275" fill="#c4b5fd" font-size="14" font-weight="700" text-anchor="middle">d</text>
<text x="532" y="268" fill="#cfe0f0" font-size="14" font-weight="700">Frames in biology</text>
<text x="502" y="301.5" fill="#a78bfa" font-size="11.5" font-weight="700">protein</text>
<text x="642" y="301.5" fill="#9fb4cc" font-size="11.5">residue 3D frame</text>
<text x="502" y="321.5" fill="#a78bfa" font-size="11.5" font-weight="700">tissue</text>
<text x="642" y="321.5" fill="#9fb4cc" font-size="11.5">local orientation</text>
<text x="502" y="341.5" fill="#a78bfa" font-size="11.5" font-weight="700">multi-omics</text>
<text x="642" y="341.5" fill="#9fb4cc" font-size="11.5">feature basis</text>
<text x="502" y="361.5" fill="#a78bfa" font-size="11.5" font-weight="700">GRN</text>
<text x="642" y="361.5" fill="#9fb4cc" font-size="11.5">context basis</text>
<line x1="40" y1="512" x2="900" y2="512" stroke="rgba(150,170,200,.18)" stroke-width="1"/>
<text x="40" y="538" fill="#e8eef6" font-size="13" font-weight="700">Figure C04. </text>
<text x="140.59" y="538" fill="#c7d2dd" font-size="13">Worked </text>
<text x="197.01" y="538" fill="#c7d2dd" font-size="13">example: </text>
<text x="269.55" y="538" fill="#c7d2dd" font-size="13">x_A=[1,0], </text>
<text x="358.21" y="538" fill="#c7d2dd" font-size="13">x_B=[0,1], </text>
<text x="446.87" y="538" fill="#c7d2dd" font-size="13">related </text>
<text x="511.35" y="538" fill="#c7d2dd" font-size="13">by </text>
<text x="535.53" y="538" fill="#c7d2dd" font-size="13">a </text>
<text x="551.65" y="538" fill="#c7d2dd" font-size="13">90° </text>
<text x="583.89" y="538" fill="#c7d2dd" font-size="13">gauge. </text>
<text x="640.31" y="538" fill="#9fe0ff" font-size="13" font-weight="700">(a) </text>
<text x="673.84" y="538" fill="#c7d2dd" font-size="13">Each </text>
<text x="714.14" y="538" fill="#c7d2dd" font-size="13">entity </text>
<text x="770.56" y="538" fill="#c7d2dd" font-size="13">has </text>
<text x="802.8" y="538" fill="#c7d2dd" font-size="13">its </text>
<text x="835.04" y="538" fill="#c7d2dd" font-size="13">own</text>
<text x="40" y="559" fill="#c7d2dd" font-size="13">local </text>
<text x="88.36" y="559" fill="#c7d2dd" font-size="13">ruler. </text>
<text x="144.78" y="559" fill="#fda4b0" font-size="13" font-weight="700">(b) </text>
<text x="178.31" y="559" fill="#c7d2dd" font-size="13">Frame-blind </text>
<text x="275.03" y="559" fill="#c7d2dd" font-size="13">comparison </text>
<text x="363.69" y="559" fill="#c7d2dd" font-size="13">reports </text>
<text x="428.17" y="559" fill="#c7d2dd" font-size="13">energy </text>
<text x="484.59" y="559" fill="#c7d2dd" font-size="13">2, </text>
<text x="508.77" y="559" fill="#c7d2dd" font-size="13">but </text>
<text x="541.01" y="559" fill="#c7d2dd" font-size="13">transporting </text>
<text x="645.79" y="559" fill="#c7d2dd" font-size="13">first </text>
<text x="694.15" y="559" fill="#c7d2dd" font-size="13">(R_BA·x_A=[0,1]=x_B)</text>
<text x="40" y="580" fill="#c7d2dd" font-size="13">gives </text>
<text x="88.36" y="580" fill="#c7d2dd" font-size="13">energy </text>
<text x="144.78" y="580" fill="#c7d2dd" font-size="13">0. </text>
<text x="168.96" y="580" fill="#fde68a" font-size="13" font-weight="700">(c) </text>
<text x="202.49" y="580" fill="#c7d2dd" font-size="13">Features </text>
<text x="275.03" y="580" fill="#c7d2dd" font-size="13">transform </text>
<text x="355.63" y="580" fill="#c7d2dd" font-size="13">as </text>
<text x="379.81" y="580" fill="#c7d2dd" font-size="13">x_i'=ρ(g_i)x_i, </text>
<text x="508.77" y="580" fill="#c7d2dd" font-size="13">edge </text>
<text x="549.07" y="580" fill="#c7d2dd" font-size="13">maps </text>
<text x="589.37" y="580" fill="#c7d2dd" font-size="13">as </text>
<text x="613.55" y="580" fill="#c7d2dd" font-size="13">R_ij'=ρ(g_j)R_ijρ(g_i)⁻¹. </text>
<text x="818.27" y="580" fill="#c4b5fd" font-size="13" font-weight="700">(d)</text>
<text x="40" y="601" fill="#c7d2dd" font-size="13">Literal </text>
<text x="104.48" y="601" fill="#c7d2dd" font-size="13">in </text>
<text x="128.66" y="601" fill="#c7d2dd" font-size="13">proteins, </text>
<text x="209.26" y="601" fill="#c7d2dd" font-size="13">an </text>
<text x="233.44" y="601" fill="#c7d2dd" font-size="13">analogy </text>
<text x="297.92" y="601" fill="#c7d2dd" font-size="13">in </text>
<text x="322.1" y="601" fill="#c7d2dd" font-size="13">tissue, </text>
<text x="386.58" y="601" fill="#c7d2dd" font-size="13">multi-omics, </text>
<text x="491.36" y="601" fill="#c7d2dd" font-size="13">and </text>
<text x="523.6" y="601" fill="#c7d2dd" font-size="13">GRNs: </text>
<text x="571.96" y="601" fill="#c7d2dd" font-size="13">transport </text>
<text x="652.56" y="601" fill="#c7d2dd" font-size="13">before </text>
<text x="708.98" y="601" fill="#c7d2dd" font-size="13">you </text>
<text x="741.22" y="601" fill="#c7d2dd" font-size="13">compare.</text>
</svg>