<svg xmlns="http://www.w3.org/2000/svg" width="100%" viewBox="0 0 900 230" font-family="Inter, 'Segoe UI', system-ui, sans-serif" role="img" aria-label="Figure C08 inline">
<rect x="0" y="0" width="900" height="230" fill="#070b14"/>
<text x="40" y="30" fill="#4dd7ff" font-size="11" font-weight="700" letter-spacing="2.2">C08 · BLOCK C · GEOMETRIC AND TOPOLOGICAL DL</text>
<text x="40" y="56" fill="#8a99ad" font-size="11">per-edge energy ‖δx_e‖²</text>
<rect x="40" y="147.47" width="22" height="2.53" rx="2" fill="#34d399"/>
<text x="51" y="164" fill="#8a99ad" font-size="9" text-anchor="middle">e1</text>
<rect x="68" y="80" width="22" height="70" rx="2" fill="#fb7185"/>
<text x="79" y="164" fill="#8a99ad" font-size="9" text-anchor="middle">e2</text>
<line x1="40" y1="77.47" x2="96" y2="77.47" stroke="#fb7185" stroke-width="1" stroke-dasharray="3 3"/>
<text x="270" y="124" fill="#8a99ad" font-size="26" text-anchor="middle">→</text>
<rect x="310" y="78" width="70" height="40" rx="6" fill="#0c1322" stroke="rgba(150,170,200,.18)"/>
<text x="345" y="93" fill="#8a99ad" font-size="9" text-anchor="middle">E_F total</text>
<text x="345" y="110" fill="#c4b5fd" font-size="13" font-weight="700" text-anchor="middle">0.1403</text>
<rect x="388" y="78" width="70" height="40" rx="6" fill="#0c1322" stroke="rgba(150,170,200,.18)"/>
<text x="423" y="93" fill="#8a99ad" font-size="9" text-anchor="middle">e2 share</text>
<text x="423" y="110" fill="#fda4b0" font-size="13" font-weight="700" text-anchor="middle">97%</text>
<line x1="470" y1="60" x2="470" y2="178" stroke="rgba(150,170,200,.2)" stroke-width="1"/>
<text x="500" y="86" fill="#4dd7ff" font-size="11.5" font-weight="700">L_F dim</text>
<text x="620" y="86" fill="#9fb4cc" font-size="11.5">6×6</text>
<text x="500" y="110" fill="#fbbf24" font-size="11.5" font-weight="700">trace</text>
<text x="620" y="110" fill="#9fb4cc" font-size="11.5">6.64</text>
<text x="500" y="134" fill="#a78bfa" font-size="11.5" font-weight="700">null dim</text>
<text x="620" y="134" fill="#9fb4cc" font-size="11.5">2</text>
<text x="500" y="158" fill="#34d399" font-size="11.5" font-weight="700">PSD</text>
<text x="620" y="158" fill="#9fb4cc" font-size="11.5">δᵀδ ≽ 0</text>
<text x="450" y="210" fill="#c7d2dd" font-size="12" text-anchor="middle">L_F = δᵀδ turns restriction-map disagreement into a per-edge consistency score; e2 holds ~97% of the energy.</text>
</svg>