<svg xmlns="http://www.w3.org/2000/svg" width="100%" viewBox="0 0 900 230" font-family="Inter, 'Segoe UI', system-ui, sans-serif" role="img" aria-label="Figure F01 inline">
<rect x="0" y="0" width="900" height="230" fill="#070b14"/>
<text x="40" y="30" fill="#4dd7ff" font-size="11" font-weight="700" letter-spacing="2.2">F01 · BLOCK F · GRN INFERENCE</text>
<text x="40" y="56" fill="#8a99ad" font-size="11">evidence tier</text>
<rect x="40" y="136" width="14" height="14" rx="2" fill="#fb7185"/>
<text x="47" y="164" fill="#8a99ad" font-size="9" text-anchor="middle">FX</text>
<rect x="60" y="94" width="14" height="56" rx="2" fill="#4dd7ff"/>
<text x="67" y="164" fill="#8a99ad" font-size="9" text-anchor="middle">GA</text>
<rect x="80" y="80" width="14" height="70" rx="2" fill="#a78bfa"/>
<text x="87" y="164" fill="#8a99ad" font-size="9" text-anchor="middle">TP</text>
<rect x="100" y="80" width="14" height="70" rx="2" fill="#34d399"/>
<text x="107" y="164" fill="#8a99ad" font-size="9" text-anchor="middle">HN</text>
<line x1="40" y1="80" x2="120" y2="80" stroke="#fb7185" stroke-width="1" stroke-dasharray="3 3"/>
<text x="270" y="124" fill="#8a99ad" font-size="26" text-anchor="middle">→</text>
<rect x="310" y="78" width="70" height="40" rx="6" fill="#0c1322" stroke="rgba(150,170,200,.18)"/>
<text x="345" y="93" fill="#8a99ad" font-size="9" text-anchor="middle">edges</text>
<text x="345" y="110" fill="#9fe0ff" font-size="13" font-weight="700" text-anchor="middle">4</text>
<rect x="388" y="78" width="70" height="40" rx="6" fill="#0c1322" stroke="rgba(150,170,200,.18)"/>
<text x="423" y="93" fill="#8a99ad" font-size="9" text-anchor="middle">max claims</text>
<text x="423" y="110" fill="#c4b5fd" font-size="13" font-weight="700" text-anchor="middle">4/4</text>
<line x1="470" y1="60" x2="470" y2="178" stroke="rgba(150,170,200,.2)" stroke-width="1"/>
<text x="500" y="86" fill="#fb7185" font-size="11.5" font-weight="700">FOXA2→CLDN4</text>
<text x="620" y="86" fill="#9fb4cc" font-size="11.5">r=0.72</text>
<text x="500" y="110" fill="#4dd7ff" font-size="11.5" font-weight="700">GATA1→HBB</text>
<text x="620" y="110" fill="#9fb4cc" font-size="11.5">ChIP 45:2</text>
<text x="500" y="134" fill="#a78bfa" font-size="11.5" font-weight="700">TP53→CDKN1A</text>
<text x="620" y="134" fill="#9fb4cc" font-size="11.5">8x CRISPRa</text>
<text x="500" y="158" fill="#34d399" font-size="11.5" font-weight="700">HNF4A→ALB</text>
<text x="620" y="158" fill="#9fb4cc" font-size="11.5">direct+causal</text>
<text x="450" y="210" fill="#c7d2dd" font-size="12" text-anchor="middle">Correlation (r=0.72) meets 1/4 claims; only perturbation (TP53, HNF4A) reaches tier 5 and full causality.</text>
</svg>