<svg xmlns="http://www.w3.org/2000/svg" width="100%" viewBox="0 0 940 664" font-family="Inter, 'Segoe UI', system-ui, sans-serif" role="img" aria-labelledby="t d">
<title id="t">Figure J02 — Accuracy is orthogonal to trust: audit fairness, explainability, privacy</title>
<desc id="d">Four-panel captioned figure: Accuracy is orthogonal to trust: audit fairness, explainability, privacy</desc>
<rect x="0" y="0" width="940" height="664" fill="#070b14"/>
<circle cx="160" cy="70" r="230" fill="#4dd7ff" opacity="0.05"/>
<circle cx="800" cy="450" r="250" fill="#a78bfa" opacity="0.05"/>
<text x="40" y="34" fill="#4dd7ff" font-size="12" font-weight="700" letter-spacing="2.5">FIGURE J02 · BLOCK J · ADVANCED GNN THEORY</text>
<text x="40" y="62" fill="#e8eef6" font-size="18" font-weight="700">Accuracy is orthogonal to trust: audit fairness, explainability, privacy</text>
<rect x="40" y="82" width="430" height="150" rx="12" fill="#0c1322" stroke="rgba(150,170,200,.18)"/>
<rect x="40" y="82" width="430" height="4" rx="2" fill="#4dd7ff"/>
<circle cx="64" cy="108" r="13" fill="#0e2740" stroke="#4dd7ff" stroke-width="1"/>
<text x="64" y="113" fill="#9fe0ff" font-size="14" font-weight="700" text-anchor="middle">a</text>
<text x="86" y="106" fill="#cfe0f0" font-size="14" font-weight="700">One model, four trust axes</text>
<text x="56" y="139.5" fill="#4dd7ff" font-size="11.5" font-weight="700">network</text>
<text x="196" y="139.5" fill="#9fb4cc" font-size="11.5">500 genes</text>
<text x="56" y="159.5" fill="#4dd7ff" font-size="11.5" font-weight="700">model</text>
<text x="196" y="159.5" fill="#9fb4cc" font-size="11.5">2-layer GAT</text>
<text x="56" y="179.5" fill="#4dd7ff" font-size="11.5" font-weight="700">mean AUROC</text>
<text x="196" y="179.5" fill="#9fb4cc" font-size="11.5">0.74</text>
<text x="56" y="199.5" fill="#4dd7ff" font-size="11.5" font-weight="700">trust</text>
<text x="196" y="199.5" fill="#9fb4cc" font-size="11.5">fair·explain·private</text>
<rect x="486" y="82" width="414" height="150" rx="12" fill="#0c1322" stroke="rgba(150,170,200,.18)"/>
<rect x="486" y="82" width="414" height="4" rx="2" fill="#fb7185"/>
<circle cx="510" cy="108" r="13" fill="#3a1420" stroke="#fb7185" stroke-width="1"/>
<text x="510" y="113" fill="#fda4b0" font-size="14" font-weight="700" text-anchor="middle">b</text>
<text x="532" y="106" fill="#cfe0f0" font-size="14" font-weight="700">Fairness: hub bias</text>
<text x="502" y="139.5" fill="#cfe0f0" font-size="11.5" font-family="Cascadia Code, 'Cascadia Mono', Consolas, monospace">gap = AUROC(hi deg) − AUROC(lo deg)</text>
<text x="502" y="159.5" fill="#cfe0f0" font-size="11.5" font-family="Cascadia Code, 'Cascadia Mono', Consolas, monospace">= 0.87 − 0.54 = 0.33</text>
<rect x="502" y="187.86" width="12" height="16.14" rx="2" fill="#fb7185"/>
<text x="508" y="216" fill="#8a99ad" font-size="9" text-anchor="middle">Q1</text>
<rect x="520" y="183.68" width="12" height="20.32" rx="2" fill="#fbbf24"/>
<text x="526" y="216" fill="#8a99ad" font-size="9" text-anchor="middle">Q2</text>
<rect x="538" y="180.39" width="12" height="23.61" rx="2" fill="#34d399"/>
<text x="544" y="216" fill="#8a99ad" font-size="9" text-anchor="middle">Q3</text>
<rect x="556" y="178" width="12" height="26" rx="2" fill="#4dd7ff"/>
<text x="562" y="216" fill="#8a99ad" font-size="9" text-anchor="middle">Q4</text>
<line x1="502" y1="181.89" x2="574" y2="181.89" stroke="#fb7185" stroke-width="1" stroke-dasharray="3 3"/>
<rect x="40" y="244" width="430" height="248" rx="12" fill="#0a1120" stroke="rgba(150,170,200,.18)"/>
<rect x="40" y="244" width="430" height="4" rx="2" fill="#fbbf24"/>
<circle cx="64" cy="270" r="13" fill="#33270a" stroke="#fbbf24" stroke-width="1"/>
<text x="64" y="275" fill="#fde68a" font-size="14" font-weight="700" text-anchor="middle">c</text>
<text x="86" y="268" fill="#cfe0f0" font-size="14" font-weight="700">Explain: GNNExplainer (GATA1)</text>
<text x="56" y="301.5" fill="#cfe0f0" font-size="11.5" font-family="Cascadia Code, 'Cascadia Mono', Consolas, monospace">max MI(Y, G_S) − λ‖M_A‖₁ − μ‖M_X‖₁</text>
<text x="56" y="329.5" fill="#a78bfa" font-size="11.5" font-weight="700">GATA1–KLF1</text>
<text x="196" y="329.5" fill="#9fb4cc" font-size="11.5">0.89</text>
<text x="56" y="349.5" fill="#a78bfa" font-size="11.5" font-weight="700">GATA1–TAL1</text>
<text x="196" y="349.5" fill="#9fb4cc" font-size="11.5">0.82</text>
<text x="56" y="369.5" fill="#fbbf24" font-size="11.5" font-weight="700">ATAC feat</text>
<text x="196" y="369.5" fill="#9fb4cc" font-size="11.5">0.85</text>
<text x="56" y="389.5" fill="#4dd7ff" font-size="11.5" font-weight="700">conf</text>
<text x="196" y="389.5" fill="#9fb4cc" font-size="11.5">0.91</text>
<rect x="486" y="244" width="414" height="248" rx="12" fill="#0a1120" stroke="rgba(150,170,200,.18)"/>
<rect x="486" y="244" width="414" height="4" rx="2" fill="#a78bfa"/>
<circle cx="510" cy="270" r="13" fill="#241a40" stroke="#a78bfa" stroke-width="1"/>
<text x="510" y="275" fill="#c4b5fd" font-size="14" font-weight="700" text-anchor="middle">d</text>
<text x="532" y="268" fill="#cfe0f0" font-size="14" font-weight="700">Privacy: MI attack vs DP</text>
<rect x="502" y="292" width="12" height="64" rx="2" fill="#fb7185"/>
<text x="508" y="368" fill="#8a99ad" font-size="9" text-anchor="middle">no DP</text>
<rect x="538" y="306.42" width="12" height="49.58" rx="2" fill="#34d399"/>
<text x="544" y="368" fill="#8a99ad" font-size="9" text-anchor="middle">ε=8</text>
<rect x="574" y="310.93" width="12" height="45.07" rx="2" fill="#4dd7ff"/>
<text x="580" y="368" fill="#8a99ad" font-size="9" text-anchor="middle">rand</text>
<line x1="502" y1="310.93" x2="610" y2="310.93" stroke="#fb7185" stroke-width="1" stroke-dasharray="3 3"/>
<text x="502" y="393" fill="#8a99ad" font-size="11">DP at ε=8 cuts the attack to 0.55 for only 0.03 AUROC.</text>
<line x1="40" y1="512" x2="900" y2="512" stroke="rgba(150,170,200,.18)" stroke-width="1"/>
<text x="40" y="538" fill="#e8eef6" font-size="13" font-weight="700">Figure J02. </text>
<text x="143.1" y="538" fill="#c7d2dd" font-size="13">One </text>
<text x="176.55" y="538" fill="#c7d2dd" font-size="13">500-gene </text>
<text x="249.09" y="538" fill="#c7d2dd" font-size="13">GAT </text>
<text x="284.96" y="538" fill="#c7d2dd" font-size="13">(mean </text>
<text x="333.32" y="538" fill="#c7d2dd" font-size="13">AUROC </text>
<text x="387.72" y="538" fill="#c7d2dd" font-size="13">0.74) </text>
<text x="436.08" y="538" fill="#c7d2dd" font-size="13">audited </text>
<text x="500.56" y="538" fill="#c7d2dd" font-size="13">on </text>
<text x="524.74" y="538" fill="#c7d2dd" font-size="13">three </text>
<text x="573.1" y="538" fill="#c7d2dd" font-size="13">trust </text>
<text x="621.46" y="538" fill="#c7d2dd" font-size="13">axes. </text>
<text x="669.82" y="538" fill="#9fe0ff" font-size="13" font-weight="700">(a) </text>
<text x="703.35" y="538" fill="#c7d2dd" font-size="13">Accuracy </text>
<text x="777.1" y="538" fill="#c7d2dd" font-size="13">alone </text>
<text x="825.46" y="538" fill="#c7d2dd" font-size="13">says</text>
<text x="40" y="559" fill="#c7d2dd" font-size="13">nothing </text>
<text x="104.48" y="559" fill="#c7d2dd" font-size="13">about </text>
<text x="152.84" y="559" fill="#c7d2dd" font-size="13">trust. </text>
<text x="209.26" y="559" fill="#fda4b0" font-size="13" font-weight="700">(b) </text>
<text x="242.79" y="559" fill="#c7d2dd" font-size="13">Degree-stratified </text>
<text x="389.08" y="559" fill="#c7d2dd" font-size="13">AUROC </text>
<text x="443.48" y="559" fill="#c7d2dd" font-size="13">exposes </text>
<text x="507.96" y="559" fill="#c7d2dd" font-size="13">hub </text>
<text x="540.2" y="559" fill="#c7d2dd" font-size="13">bias: </text>
<text x="588.56" y="559" fill="#c7d2dd" font-size="13">0.54 </text>
<text x="628.86" y="559" fill="#c7d2dd" font-size="13">low-degree </text>
<text x="717.52" y="559" fill="#c7d2dd" font-size="13">vs </text>
<text x="741.7" y="559" fill="#c7d2dd" font-size="13">0.87 </text>
<text x="782" y="559" fill="#c7d2dd" font-size="13">hubs </text>
<text x="822.3" y="559" fill="#c7d2dd" font-size="13">— </text>
<text x="844.87" y="559" fill="#c7d2dd" font-size="13">a</text>
<text x="40" y="580" fill="#c7d2dd" font-size="13">0.33 </text>
<text x="80.3" y="580" fill="#c7d2dd" font-size="13">gap </text>
<text x="112.54" y="580" fill="#c7d2dd" font-size="13">the </text>
<text x="144.78" y="580" fill="#c7d2dd" font-size="13">mean </text>
<text x="185.08" y="580" fill="#c7d2dd" font-size="13">hides. </text>
<text x="241.5" y="580" fill="#fde68a" font-size="13" font-weight="700">(c) </text>
<text x="275.03" y="580" fill="#c7d2dd" font-size="13">GNNExplainer </text>
<text x="384.65" y="580" fill="#c7d2dd" font-size="13">keeps </text>
<text x="433.01" y="580" fill="#c7d2dd" font-size="13">the </text>
<text x="465.25" y="580" fill="#c7d2dd" font-size="13">minimal </text>
<text x="529.73" y="580" fill="#c7d2dd" font-size="13">subgraph </text>
<text x="602.27" y="580" fill="#c7d2dd" font-size="13">(GATA1–KLF1 </text>
<text x="713.9" y="580" fill="#c7d2dd" font-size="13">0.89) </text>
<text x="762.26" y="580" fill="#c7d2dd" font-size="13">reproducing </text>
<text x="858.98" y="580" fill="#c7d2dd" font-size="13">the</text>
<text x="40" y="601" fill="#c7d2dd" font-size="13">0.91 </text>
<text x="80.3" y="601" fill="#c7d2dd" font-size="13">prediction. </text>
<text x="177.02" y="601" fill="#c4b5fd" font-size="13" font-weight="700">(d) </text>
<text x="210.55" y="601" fill="#c7d2dd" font-size="13">A </text>
<text x="227.88" y="601" fill="#c7d2dd" font-size="13">membership-inference </text>
<text x="397.14" y="601" fill="#c7d2dd" font-size="13">attack </text>
<text x="453.56" y="601" fill="#c7d2dd" font-size="13">hits </text>
<text x="493.86" y="601" fill="#c7d2dd" font-size="13">0.71; </text>
<text x="542.22" y="601" fill="#c7d2dd" font-size="13">DP </text>
<text x="568.82" y="601" fill="#c7d2dd" font-size="13">at </text>
<text x="593" y="601" fill="#c7d2dd" font-size="13">ε=8 </text>
<text x="625.24" y="601" fill="#c7d2dd" font-size="13">drops </text>
<text x="673.6" y="601" fill="#c7d2dd" font-size="13">it </text>
<text x="697.78" y="601" fill="#c7d2dd" font-size="13">to </text>
<text x="721.96" y="601" fill="#c7d2dd" font-size="13">0.55 </text>
<text x="762.26" y="601" fill="#c7d2dd" font-size="13">for </text>
<text x="794.5" y="601" fill="#c7d2dd" font-size="13">−0.03</text>
<text x="40" y="622" fill="#c7d2dd" font-size="13">AUROC.</text>
</svg>