<svg xmlns="http://www.w3.org/2000/svg" width="100%" viewBox="0 0 900 230" font-family="Inter, 'Segoe UI', system-ui, sans-serif" role="img" aria-label="Figure J08 inline">
<rect x="0" y="0" width="900" height="230" fill="#070b14"/>
<text x="40" y="30" fill="#4dd7ff" font-size="11" font-weight="700" letter-spacing="2.2">J08 · BLOCK J · ADVANCED GNN THEORY</text>
<text x="40" y="56" fill="#8a99ad" font-size="11">accuracy</text>
<rect x="40" y="99.74" width="14" height="50.26" rx="2" fill="#fb7185"/>
<text x="51.16" y="164" fill="#8a99ad" font-size="9" text-anchor="middle">froz</text>
<rect x="74" y="80" width="14" height="70" rx="2" fill="#34d399"/>
<text x="81" y="164" fill="#8a99ad" font-size="9" text-anchor="middle">promp</text>
<line x1="40" y1="105.13" x2="108" y2="105.13" stroke="#fb7185" stroke-width="1" stroke-dasharray="3 3"/>
<text x="270" y="124" fill="#8a99ad" font-size="26" text-anchor="middle">→</text>
<rect x="310" y="78" width="70" height="40" rx="6" fill="#0c1322" stroke="rgba(150,170,200,.18)"/>
<text x="345" y="93" fill="#8a99ad" font-size="9" text-anchor="middle">params</text>
<text x="345" y="110" fill="#c4b5fd" font-size="13" font-weight="700" text-anchor="middle">320</text>
<rect x="388" y="78" width="70" height="40" rx="6" fill="#0c1322" stroke="rgba(150,170,200,.18)"/>
<text x="423" y="93" fill="#8a99ad" font-size="9" text-anchor="middle">speedup</text>
<text x="423" y="110" fill="#9fe0ff" font-size="13" font-weight="700" text-anchor="middle">40×</text>
<line x1="470" y1="60" x2="470" y2="178" stroke="rgba(150,170,200,.2)" stroke-width="1"/>
<text x="500" y="86" fill="#34d399" font-size="11.5" font-weight="700">k=2</text>
<text x="620" y="86" fill="#9fb4cc" font-size="11.5">0.64</text>
<text x="500" y="110" fill="#34d399" font-size="11.5" font-weight="700">k=20</text>
<text x="620" y="110" fill="#9fb4cc" font-size="11.5">0.78</text>
<text x="500" y="134" fill="#fbbf24" font-size="11.5" font-weight="700">k=100</text>
<text x="620" y="134" fill="#9fb4cc" font-size="11.5">0.83</text>
<text x="450" y="210" fill="#c7d2dd" font-size="12" text-anchor="middle">Prompt G_p (320 params) lifts a frozen GNN 0.56→0.78 in 12s; wins few-shot below k≈35.</text>
</svg>